<svg xmlns="http://www.w3.org/2000/svg" width="1920" height="1080" viewBox="0 0 1920 1080">
  <defs>
    <style>
      .cls-1 {
        fill: none;
        stroke: #000;
        stroke-width: 1px;
      }
    </style>
  </defs>
  <g id="Монтажная_область_1" data-name="Монтажная область 1">
    <g id="_1-3" data-name="1-3">
      <g id="стены">
        <rect id="Прямоугольник_574" data-name="Прямоугольник 574" x="756" y="739" width="5" height="316"/>
        <rect id="Прямоугольник_675" data-name="Прямоугольник 675" x="761" y="739" width="175" height="5"/>
        <rect id="Прямоугольник_579" data-name="Прямоугольник 579" x="951" y="688" width="5" height="56"/>
        <rect id="Прямоугольник_570" data-name="Прямоугольник 570" x="956" y="688" width="64" height="5"/>
        <rect id="Прямоугольник_676" data-name="Прямоугольник 676" x="1063" y="688" width="22" height="5"/>
        <rect id="Прямоугольник_677" data-name="Прямоугольник 677" x="1122" y="688" width="25" height="5"/>
        <rect id="Прямоугольник_678" data-name="Прямоугольник 678" x="1185" y="688" width="50" height="5"/>
        <rect id="Прямоугольник_679" data-name="Прямоугольник 679" x="1147" y="691" width="38" height="1"/>
        <rect id="Прямоугольник_680" data-name="Прямоугольник 680" x="1147" y="689" width="38" height="1"/>
        <rect id="Прямоугольник_681" data-name="Прямоугольник 681" x="1085" y="691" width="37" height="1"/>
        <rect id="Прямоугольник_682" data-name="Прямоугольник 682" x="1085" y="689" width="37" height="1"/>
        <rect id="Прямоугольник_683" data-name="Прямоугольник 683" x="1020" y="689" width="43" height="1"/>
        <rect id="Прямоугольник_684" data-name="Прямоугольник 684" x="1020" y="691" width="43" height="1"/>
        <rect id="Прямоугольник_581" data-name="Прямоугольник 581" x="1230" y="693" width="5" height="51"/>
        <rect id="Прямоугольник_582" data-name="Прямоугольник 582" x="1251" y="739" width="169" height="5"/>
        <rect id="Прямоугольник_593" data-name="Прямоугольник 593" x="1415" y="744" width="5" height="311"/>
        <rect id="Прямоугольник_579-2" data-name="Прямоугольник 579" x="761" y="1050" width="654" height="5"/>
        <rect id="Прямоугольник_666" data-name="Прямоугольник 666" x="861" y="899" width="3" height="21"/>
        <rect id="Прямоугольник_667" data-name="Прямоугольник 667" x="896" y="920" width="30" height="3"/>
        <rect id="Прямоугольник_668" data-name="Прямоугольник 668" x="911" y="899" width="3" height="151"/>
        <rect id="Прямоугольник_658" data-name="Прямоугольник 658" x="914" y="984" width="12" height="3"/>
        <rect id="Прямоугольник_659" data-name="Прямоугольник 659" x="942" y="984" width="11" height="3"/>
        <rect id="Прямоугольник_660" data-name="Прямоугольник 660" x="941" y="920" width="29" height="3"/>
        <rect id="Прямоугольник_661" data-name="Прямоугольник 661" x="953" y="911" width="3" height="9"/>
        <rect id="Прямоугольник_662" data-name="Прямоугольник 662" x="984" y="920" width="106" height="3"/>
        <rect id="Прямоугольник_663" data-name="Прямоугольник 663" x="1068" y="915" width="3" height="5"/>
        <rect id="Прямоугольник_664" data-name="Прямоугольник 664" x="1017" y="923" width="3" height="127"/>
        <rect id="Прямоугольник_665" data-name="Прямоугольник 665" x="1020" y="1004" width="79" height="3"/>
        <rect id="Прямоугольник_666-2" data-name="Прямоугольник 666" x="1118" y="1004" width="112" height="3"/>
        <rect id="Прямоугольник_667-2" data-name="Прямоугольник 667" x="1230" y="915" width="3" height="135"/>
        <rect id="Прямоугольник_668-2" data-name="Прямоугольник 668" x="1128" y="953" width="3" height="51"/>
        <rect id="Прямоугольник_669" data-name="Прямоугольник 669" x="1156" y="982" width="3" height="22"/>
        <rect id="Прямоугольник_670" data-name="Прямоугольник 670" x="1128" y="915" width="3" height="17"/>
        <rect id="Прямоугольник_671" data-name="Прямоугольник 671" x="1112" y="920" width="101" height="3"/>
        <rect id="Прямоугольник_646" data-name="Прямоугольник 646" x="1225" y="920" width="123" height="3"/>
        <rect id="Прямоугольник_672" data-name="Прямоугольник 672" x="1156" y="923" width="3" height="48"/>
        <rect id="Прямоугольник_673" data-name="Прямоугольник 673" x="1316" y="914" width="3" height="23"/>
        <rect id="Прямоугольник_674" data-name="Прямоугольник 674" x="1316" y="957" width="3" height="93"/>
        <rect id="Прямоугольник_675-2" data-name="Прямоугольник 675" x="1371" y="920" width="44" height="3"/>
        <rect id="Прямоугольник_577" data-name="Прямоугольник 577" x="761" y="920" width="120" height="3"/>
        <rect id="Прямоугольник_588" data-name="Прямоугольник 588" x="953" y="970" width="3" height="80"/>
        <rect id="Прямоугольник_682-2" data-name="Прямоугольник 682" x="953" y="923" width="3" height="12"/>
        <rect id="Прямоугольник_589" data-name="Прямоугольник 589" x="808" y="949" width="3" height="101"/>
        <rect id="Прямоугольник_663-2" data-name="Прямоугольник 663" x="808" y="923" width="3" height="15"/>
        <rect id="Прямоугольник_568" data-name="Прямоугольник 568" x="760" y="863" width="23" height="3"/>
        <rect id="Прямоугольник_644" data-name="Прямоугольник 644" x="798" y="863" width="30" height="3"/>
        <rect id="Прямоугольник_570-2" data-name="Прямоугольник 570" x="846" y="863" width="68" height="3"/>
        <rect id="Прямоугольник_677-2" data-name="Прямоугольник 677" x="911" y="866" width="3" height="16"/>
        <rect id="Прямоугольник_678-2" data-name="Прямоугольник 678" x="861" y="866" width="3" height="16"/>
        <rect id="Прямоугольник_645" data-name="Прямоугольник 645" x="861" y="843" width="3" height="20"/>
        <rect id="Прямоугольник_679-2" data-name="Прямоугольник 679" x="953" y="866" width="3" height="15"/>
        <rect id="Прямоугольник_591" data-name="Прямоугольник 591" x="861" y="744" width="3" height="87"/>
        <rect id="Прямоугольник_592" data-name="Прямоугольник 592" x="911" y="744" width="3" height="119"/>
        <rect id="Прямоугольник_593-2" data-name="Прямоугольник 593" x="953" y="744" width="3" height="122"/>
        <rect id="Прямоугольник_569" data-name="Прямоугольник 569" x="980" y="863" width="111" height="3"/>
        <rect id="Прямоугольник_647" data-name="Прямоугольник 647" x="956" y="863" width="10" height="3"/>
        <rect id="Прямоугольник_679-3" data-name="Прямоугольник 679" x="1112" y="863" width="121" height="3"/>
        <rect id="Прямоугольник_680-2" data-name="Прямоугольник 680" x="1230" y="866" width="3" height="4"/>
        <rect id="Прямоугольник_681-2" data-name="Прямоугольник 681" x="1128" y="866" width="3" height="4"/>
        <rect id="Прямоугольник_682-3" data-name="Прямоугольник 682" x="1068" y="866" width="3" height="4"/>
        <rect id="Прямоугольник_595" data-name="Прямоугольник 595" x="1230" y="744" width="3" height="119"/>
        <rect id="Прямоугольник_597" data-name="Прямоугольник 597" x="1271" y="744" width="3" height="122"/>
        <rect id="Прямоугольник_598" data-name="Прямоугольник 598" x="1316" y="744" width="3" height="122"/>
        <rect id="Прямоугольник_569-2" data-name="Прямоугольник 569" x="1274" y="863" width="14" height="3"/>
        <rect id="Прямоугольник_601" data-name="Прямоугольник 601" x="1303" y="863" width="49" height="3"/>
        <rect id="Прямоугольник_648" data-name="Прямоугольник 648" x="1365" y="863" width="50" height="3"/>
        <rect id="Прямоугольник_675-3" data-name="Прямоугольник 675" x="1316" y="866" width="3" height="31"/>
      </g>
      <g id="Лестницы">
        <g id="Лестница_1" data-name="Лестница 1">
          <rect id="Прямоугольник_99" data-name="Прямоугольник 99" class="cls-1" x="1249.5" y="771.938" width="5" height="71"/>
          <rect id="Прямоугольник_100" data-name="Прямоугольник 100" class="cls-1" x="1232.5" y="807.938" width="17" height="1"/>
          <rect id="Прямоугольник_101" data-name="Прямоугольник 101" class="cls-1" x="1232.5" y="804.938" width="17" height="1"/>
          <rect id="Прямоугольник_102" data-name="Прямоугольник 102" class="cls-1" x="1232.5" y="801.938" width="17" height="1"/>
          <rect id="Прямоугольник_103" data-name="Прямоугольник 103" class="cls-1" x="1232.5" y="798.938" width="17" height="1"/>
          <rect id="Прямоугольник_104" data-name="Прямоугольник 104" class="cls-1" x="1232.5" y="795.938" width="17" height="1"/>
          <rect id="Прямоугольник_105" data-name="Прямоугольник 105" class="cls-1" x="1232.5" y="792.938" width="17" height="1"/>
          <rect id="Прямоугольник_106" data-name="Прямоугольник 106" class="cls-1" x="1232.5" y="789.938" width="17" height="1"/>
          <rect id="Прямоугольник_107" data-name="Прямоугольник 107" class="cls-1" x="1232.5" y="786.938" width="17" height="1"/>
          <rect id="Прямоугольник_108" data-name="Прямоугольник 108" class="cls-1" x="1232.5" y="783.938" width="17" height="1"/>
          <rect id="Прямоугольник_109" data-name="Прямоугольник 109" class="cls-1" x="1232.5" y="780.938" width="17" height="1"/>
          <rect id="Прямоугольник_110" data-name="Прямоугольник 110" class="cls-1" x="1232.5" y="777.938" width="17" height="1"/>
          <rect id="Прямоугольник_111" data-name="Прямоугольник 111" class="cls-1" x="1232.5" y="774.938" width="17" height="1"/>
          <rect id="Прямоугольник_112" data-name="Прямоугольник 112" class="cls-1" x="1232.5" y="771.938" width="17" height="1"/>
          <rect id="Прямоугольник_113" data-name="Прямоугольник 113" class="cls-1" x="1254.5" y="808.938" width="16" height="1"/>
          <rect id="Прямоугольник_100-2" data-name="Прямоугольник 100" class="cls-1" x="1254.5" y="805.938" width="16" height="1"/>
          <rect id="Прямоугольник_101-2" data-name="Прямоугольник 101" class="cls-1" x="1254.5" y="802.938" width="16" height="1"/>
          <rect id="Прямоугольник_102-2" data-name="Прямоугольник 102" class="cls-1" x="1254.5" y="799.938" width="16" height="1"/>
          <rect id="Прямоугольник_103-2" data-name="Прямоугольник 103" class="cls-1" x="1254.5" y="796.938" width="16" height="1"/>
          <rect id="Прямоугольник_113-2" data-name="Прямоугольник 113" class="cls-1" x="1254.5" y="823.938" width="16" height="1"/>
          <rect id="Прямоугольник_100-3" data-name="Прямоугольник 100" class="cls-1" x="1254.5" y="820.938" width="16" height="1"/>
          <rect id="Прямоугольник_101-3" data-name="Прямоугольник 101" class="cls-1" x="1254.5" y="817.938" width="16" height="1"/>
          <rect id="Прямоугольник_102-3" data-name="Прямоугольник 102" class="cls-1" x="1254.5" y="814.938" width="16" height="1"/>
          <rect id="Прямоугольник_103-3" data-name="Прямоугольник 103" class="cls-1" x="1254.5" y="811.938" width="16" height="1"/>
          <rect id="Прямоугольник_113-3" data-name="Прямоугольник 113" class="cls-1" x="1254.5" y="838.938" width="16" height="1"/>
          <rect id="Прямоугольник_113-4" data-name="Прямоугольник 113" class="cls-1" x="1254.5" y="841.938" width="16" height="1"/>
          <rect id="Прямоугольник_100-4" data-name="Прямоугольник 100" class="cls-1" x="1254.5" y="835.938" width="16" height="1"/>
          <rect id="Прямоугольник_101-4" data-name="Прямоугольник 101" class="cls-1" x="1254.5" y="832.938" width="16" height="1"/>
          <rect id="Прямоугольник_102-4" data-name="Прямоугольник 102" class="cls-1" x="1254.5" y="829.938" width="16" height="1"/>
          <rect id="Прямоугольник_103-4" data-name="Прямоугольник 103" class="cls-1" x="1254.5" y="826.938" width="16" height="1"/>
          <rect id="Прямоугольник_113-5" data-name="Прямоугольник 113" class="cls-1" x="1232.5" y="822.938" width="17" height="1"/>
          <rect id="Прямоугольник_100-5" data-name="Прямоугольник 100" class="cls-1" x="1232.5" y="819.938" width="17" height="1"/>
          <rect id="Прямоугольник_101-5" data-name="Прямоугольник 101" class="cls-1" x="1232.5" y="816.938" width="17" height="1"/>
          <rect id="Прямоугольник_102-5" data-name="Прямоугольник 102" class="cls-1" x="1232.5" y="813.938" width="17" height="1"/>
          <rect id="Прямоугольник_103-5" data-name="Прямоугольник 103" class="cls-1" x="1232.5" y="810.938" width="17" height="1"/>
          <rect id="Прямоугольник_113-6" data-name="Прямоугольник 113" class="cls-1" x="1232.5" y="837.938" width="17" height="1"/>
          <rect id="Прямоугольник_113-7" data-name="Прямоугольник 113" class="cls-1" x="1232.5" y="840.938" width="17" height="1"/>
          <rect id="Прямоугольник_100-6" data-name="Прямоугольник 100" class="cls-1" x="1232.5" y="834.938" width="17" height="1"/>
          <rect id="Прямоугольник_101-6" data-name="Прямоугольник 101" class="cls-1" x="1232.5" y="831.938" width="17" height="1"/>
          <rect id="Прямоугольник_102-6" data-name="Прямоугольник 102" class="cls-1" x="1232.5" y="828.938" width="17" height="1"/>
          <rect id="Прямоугольник_103-6" data-name="Прямоугольник 103" class="cls-1" x="1232.5" y="825.938" width="17" height="1"/>
          <rect id="Прямоугольник_104-2" data-name="Прямоугольник 104" class="cls-1" x="1254.5" y="793.938" width="16" height="1"/>
          <rect id="Прямоугольник_105-2" data-name="Прямоугольник 105" class="cls-1" x="1254.5" y="790.938" width="16" height="1"/>
          <rect id="Прямоугольник_106-2" data-name="Прямоугольник 106" class="cls-1" x="1254.5" y="787.938" width="16" height="1"/>
          <rect id="Прямоугольник_107-2" data-name="Прямоугольник 107" class="cls-1" x="1254.5" y="784.938" width="16" height="1"/>
          <rect id="Прямоугольник_108-2" data-name="Прямоугольник 108" class="cls-1" x="1254.5" y="781.938" width="16" height="1"/>
          <rect id="Прямоугольник_109-2" data-name="Прямоугольник 109" class="cls-1" x="1254.5" y="778.938" width="16" height="1"/>
          <rect id="Прямоугольник_110-2" data-name="Прямоугольник 110" class="cls-1" x="1254.5" y="775.938" width="16" height="1"/>
          <rect id="Прямоугольник_111-2" data-name="Прямоугольник 111" class="cls-1" x="1254.5" y="772.938" width="16" height="1"/>
        </g>
        <g id="Лестница_1-2" data-name="Лестница 1">
          <rect id="Прямоугольник_99-2" data-name="Прямоугольник 99" class="cls-1" x="931.5" y="771.438" width="5" height="71"/>
          <rect id="Прямоугольник_100-7" data-name="Прямоугольник 100" class="cls-1" x="913.5" y="807.938" width="18" height="1"/>
          <rect id="Прямоугольник_101-7" data-name="Прямоугольник 101" class="cls-1" x="913.5" y="804.938" width="18" height="1"/>
          <rect id="Прямоугольник_102-7" data-name="Прямоугольник 102" class="cls-1" x="913.5" y="801.938" width="18" height="1"/>
          <rect id="Прямоугольник_103-7" data-name="Прямоугольник 103" class="cls-1" x="913.5" y="798.938" width="18" height="1"/>
          <rect id="Прямоугольник_104-3" data-name="Прямоугольник 104" class="cls-1" x="913.5" y="795.938" width="18" height="1"/>
          <rect id="Прямоугольник_105-3" data-name="Прямоугольник 105" class="cls-1" x="913.5" y="792.938" width="18" height="1"/>
          <rect id="Прямоугольник_106-3" data-name="Прямоугольник 106" class="cls-1" x="913.5" y="789.938" width="18" height="1"/>
          <rect id="Прямоугольник_107-3" data-name="Прямоугольник 107" class="cls-1" x="913.5" y="786.938" width="18" height="1"/>
          <rect id="Прямоугольник_108-3" data-name="Прямоугольник 108" class="cls-1" x="913.5" y="783.938" width="18" height="1"/>
          <rect id="Прямоугольник_109-3" data-name="Прямоугольник 109" class="cls-1" x="913.5" y="780.938" width="18" height="1"/>
          <rect id="Прямоугольник_110-3" data-name="Прямоугольник 110" class="cls-1" x="913.5" y="777.938" width="18" height="1"/>
          <rect id="Прямоугольник_111-3" data-name="Прямоугольник 111" class="cls-1" x="913.5" y="774.938" width="18" height="1"/>
          <rect id="Прямоугольник_112-2" data-name="Прямоугольник 112" class="cls-1" x="913.5" y="771.938" width="18" height="1"/>
          <rect id="Прямоугольник_113-8" data-name="Прямоугольник 113" class="cls-1" x="936.5" y="808.438" width="16" height="1"/>
          <rect id="Прямоугольник_100-8" data-name="Прямоугольник 100" class="cls-1" x="936.5" y="805.438" width="16" height="1"/>
          <rect id="Прямоугольник_101-8" data-name="Прямоугольник 101" class="cls-1" x="936.5" y="802.438" width="16" height="1"/>
          <rect id="Прямоугольник_102-8" data-name="Прямоугольник 102" class="cls-1" x="936.5" y="799.438" width="16" height="1"/>
          <rect id="Прямоугольник_103-8" data-name="Прямоугольник 103" class="cls-1" x="936.5" y="796.438" width="16" height="1"/>
          <rect id="Прямоугольник_113-9" data-name="Прямоугольник 113" class="cls-1" x="936.5" y="823.438" width="16" height="1"/>
          <rect id="Прямоугольник_100-9" data-name="Прямоугольник 100" class="cls-1" x="936.5" y="820.438" width="16" height="1"/>
          <rect id="Прямоугольник_101-9" data-name="Прямоугольник 101" class="cls-1" x="936.5" y="817.438" width="16" height="1"/>
          <rect id="Прямоугольник_102-9" data-name="Прямоугольник 102" class="cls-1" x="936.5" y="814.438" width="16" height="1"/>
          <rect id="Прямоугольник_103-9" data-name="Прямоугольник 103" class="cls-1" x="936.5" y="811.438" width="16" height="1"/>
          <rect id="Прямоугольник_113-10" data-name="Прямоугольник 113" class="cls-1" x="936.5" y="838.438" width="16" height="1"/>
          <rect id="Прямоугольник_113-11" data-name="Прямоугольник 113" class="cls-1" x="936.5" y="841.438" width="16" height="1"/>
          <rect id="Прямоугольник_100-10" data-name="Прямоугольник 100" class="cls-1" x="936.5" y="835.438" width="16" height="1"/>
          <rect id="Прямоугольник_101-10" data-name="Прямоугольник 101" class="cls-1" x="936.5" y="832.438" width="16" height="1"/>
          <rect id="Прямоугольник_102-10" data-name="Прямоугольник 102" class="cls-1" x="936.5" y="829.438" width="16" height="1"/>
          <rect id="Прямоугольник_103-10" data-name="Прямоугольник 103" class="cls-1" x="936.5" y="826.438" width="16" height="1"/>
          <rect id="Прямоугольник_113-12" data-name="Прямоугольник 113" class="cls-1" x="913.5" y="822.938" width="18" height="1"/>
          <rect id="Прямоугольник_100-11" data-name="Прямоугольник 100" class="cls-1" x="913.5" y="819.938" width="18" height="1"/>
          <rect id="Прямоугольник_101-11" data-name="Прямоугольник 101" class="cls-1" x="913.5" y="816.938" width="18" height="1"/>
          <rect id="Прямоугольник_102-11" data-name="Прямоугольник 102" class="cls-1" x="913.5" y="813.938" width="18" height="1"/>
          <rect id="Прямоугольник_103-11" data-name="Прямоугольник 103" class="cls-1" x="913.5" y="810.938" width="18" height="1"/>
          <rect id="Прямоугольник_113-13" data-name="Прямоугольник 113" class="cls-1" x="913.5" y="837.938" width="18" height="1"/>
          <rect id="Прямоугольник_113-14" data-name="Прямоугольник 113" class="cls-1" x="913.5" y="840.938" width="18" height="1"/>
          <rect id="Прямоугольник_100-12" data-name="Прямоугольник 100" class="cls-1" x="913.5" y="834.938" width="18" height="1"/>
          <rect id="Прямоугольник_101-12" data-name="Прямоугольник 101" class="cls-1" x="913.5" y="831.938" width="18" height="1"/>
          <rect id="Прямоугольник_102-12" data-name="Прямоугольник 102" class="cls-1" x="913.5" y="828.938" width="18" height="1"/>
          <rect id="Прямоугольник_103-12" data-name="Прямоугольник 103" class="cls-1" x="913.5" y="825.938" width="18" height="1"/>
          <rect id="Прямоугольник_104-4" data-name="Прямоугольник 104" class="cls-1" x="936.5" y="793.438" width="16" height="1"/>
          <rect id="Прямоугольник_105-4" data-name="Прямоугольник 105" class="cls-1" x="936.5" y="790.438" width="16" height="1"/>
          <rect id="Прямоугольник_106-4" data-name="Прямоугольник 106" class="cls-1" x="936.5" y="787.438" width="16" height="1"/>
          <rect id="Прямоугольник_107-4" data-name="Прямоугольник 107" class="cls-1" x="936.5" y="784.438" width="16" height="1"/>
          <rect id="Прямоугольник_108-4" data-name="Прямоугольник 108" class="cls-1" x="936.5" y="781.438" width="16" height="1"/>
          <rect id="Прямоугольник_109-4" data-name="Прямоугольник 109" class="cls-1" x="936.5" y="778.438" width="16" height="1"/>
          <rect id="Прямоугольник_110-4" data-name="Прямоугольник 110" class="cls-1" x="936.5" y="775.438" width="16" height="1"/>
          <rect id="Прямоугольник_111-4" data-name="Прямоугольник 111" class="cls-1" x="936.5" y="772.438" width="16" height="1"/>
        </g>
      </g>
    </g>
    <g id="_2-3" data-name="2-3">
      <g id="Стены-2" data-name="Стены">
        <rect id="Прямоугольник_565" data-name="Прямоугольник 565" x="1215" y="83" width="192" height="5"/>
        <rect id="Прямоугольник_522" data-name="Прямоугольник 522" x="1279" y="146" width="3" height="50"/>
        <rect id="Прямоугольник_775" data-name="Прямоугольник 775" x="1265" y="154" width="14" height="3"/>
        <rect id="Прямоугольник_776" data-name="Прямоугольник 776" x="1282" y="122" width="10" height="3"/>
        <rect id="Прямоугольник_777" data-name="Прямоугольник 777" x="1303" y="122" width="9" height="3"/>
        <rect id="Прямоугольник_563" data-name="Прямоугольник 563" x="1279" y="88" width="3" height="47"/>
        <rect id="Прямоугольник_563-2" data-name="Прямоугольник 563" x="1210" y="83" width="5" height="128"/>
        <rect id="Прямоугольник_674-2" data-name="Прямоугольник 674" x="1210" y="226" width="5" height="247"/>
        <rect id="Прямоугольник_675-4" data-name="Прямоугольник 675" x="1210" y="485" width="5" height="102"/>
        <rect id="Прямоугольник_536" data-name="Прямоугольник 536" x="1215" y="418" width="64" height="3"/>
        <rect id="Прямоугольник_564" data-name="Прямоугольник 564" x="1279" y="267" width="3" height="56"/>
        <rect id="Прямоугольник_752" data-name="Прямоугольник 752" x="1238" y="293" width="41" height="3"/>
        <rect id="Прямоугольник_753" data-name="Прямоугольник 753" x="1215" y="293" width="10" height="3"/>
        <rect id="Прямоугольник_754" data-name="Прямоугольник 754" x="1247" y="286" width="3" height="7"/>
        <rect id="Прямоугольник_602" data-name="Прямоугольник 602" x="1279" y="229" width="3" height="25"/>
        <rect id="Прямоугольник_752-2" data-name="Прямоугольник 752" x="1247" y="229" width="3" height="47"/>
        <rect id="Прямоугольник_542" data-name="Прямоугольник 542" x="1215.16" y="226" width="67" height="3"/>
        <rect id="Прямоугольник_544" data-name="Прямоугольник 544" x="1215.16" y="193" width="67" height="3"/>
        <rect id="Прямоугольник_546" data-name="Прямоугольник 546" x="1215" y="154" width="38" height="3"/>
        <rect id="Прямоугольник_570-3" data-name="Прямоугольник 570" x="1312" y="88" width="3" height="73"/>
        <rect id="Прямоугольник_776-2" data-name="Прямоугольник 776" x="1312" y="175" width="3" height="30"/>
        <rect id="Прямоугольник_588-2" data-name="Прямоугольник 588" x="1407" y="83" width="5" height="504"/>
        <rect id="Прямоугольник_562" data-name="Прямоугольник 562" x="1312" y="536" width="3" height="46"/>
        <rect id="Прямоугольник_563-3" data-name="Прямоугольник 563" x="1312" y="446" width="3" height="77"/>
        <rect id="Прямоугольник_566" data-name="Прямоугольник 566" x="1312" y="360" width="3" height="75"/>
        <rect id="Прямоугольник_567" data-name="Прямоугольник 567" x="1312" y="303" width="3" height="40"/>
        <rect id="Прямоугольник_568-2" data-name="Прямоугольник 568" x="1312" y="314" width="3" height="1"/>
        <rect id="Прямоугольник_569-3" data-name="Прямоугольник 569" x="1312" y="216" width="3" height="32"/>
        <rect id="Прямоугольник_776-3" data-name="Прямоугольник 776" x="1312" y="260" width="3" height="30"/>
        <rect id="Прямоугольник_777-2" data-name="Прямоугольник 777" x="1315" y="273" width="92" height="3"/>
        <rect id="Прямоугольник_559" data-name="Прямоугольник 559" x="1315.16" y="222" width="92" height="3"/>
        <rect id="Прямоугольник_563-4" data-name="Прямоугольник 563" x="1315" y="191" width="93" height="3"/>
        <rect id="Прямоугольник_561" data-name="Прямоугольник 561" x="1315" y="313" width="92" height="3"/>
        <rect id="Прямоугольник_562-2" data-name="Прямоугольник 562" x="1315.16" y="426" width="92" height="3"/>
        <rect id="Прямоугольник_772" data-name="Прямоугольник 772" x="1315" y="477" width="64" height="3"/>
        <rect id="Прямоугольник_773" data-name="Прямоугольник 773" x="1394" y="477" width="13" height="3"/>
        <rect id="Прямоугольник_565-2" data-name="Прямоугольник 565" x="1315.16" y="451" width="92" height="3"/>
        <rect id="Прямоугольник_569-4" data-name="Прямоугольник 569" x="1279" y="440" width="3" height="19"/>
        <rect id="Прямоугольник_563-5" data-name="Прямоугольник 563" x="1279" y="338" width="3" height="86"/>
        <rect id="Прямоугольник_570-4" data-name="Прямоугольник 570" x="1279" y="485" width="3" height="18"/>
        <rect id="Прямоугольник_571" data-name="Прямоугольник 571" x="1279" y="511" width="3" height="22"/>
        <rect id="Прямоугольник_770" data-name="Прямоугольник 770" x="1215" y="515" width="64" height="3"/>
        <rect id="Прямоугольник_771" data-name="Прямоугольник 771" x="1257" y="512" width="3" height="3"/>
        <rect id="Прямоугольник_563-6" data-name="Прямоугольник 563" x="1279" y="542" width="3" height="40"/>
        <rect id="Прямоугольник_768" data-name="Прямоугольник 768" x="1282" y="546" width="9" height="3"/>
        <rect id="Прямоугольник_769" data-name="Прямоугольник 769" x="1303" y="546" width="9" height="3"/>
        <rect id="Прямоугольник_576" data-name="Прямоугольник 576" x="1215" y="485" width="64" height="3"/>
        <rect id="Прямоугольник_577-2" data-name="Прямоугольник 577" x="1215" y="459" width="67" height="3"/>
        <rect id="Прямоугольник_757" data-name="Прямоугольник 757" x="1257" y="488" width="3" height="15"/>
        <rect id="Прямоугольник_588-3" data-name="Прямоугольник 588" x="1215" y="582" width="192" height="5"/>
      </g>
      <g id="Лестницы-2" data-name="Лестницы">
        <g id="Лестница_2" data-name="Лестница 2">
          <rect id="Прямоугольник_99-3" data-name="Прямоугольник 99" class="cls-1" x="1228.16" y="472" width="38" height="3"/>
          <rect id="Прямоугольник_113-15" data-name="Прямоугольник 113" class="cls-1" x="1265.16" y="461" width="1" height="11"/>
          <rect id="Прямоугольник_100-13" data-name="Прямоугольник 100" class="cls-1" x="1262.16" y="461" width="1" height="11"/>
          <rect id="Прямоугольник_101-13" data-name="Прямоугольник 101" class="cls-1" x="1259.16" y="461" width="1" height="11"/>
          <rect id="Прямоугольник_102-13" data-name="Прямоугольник 102" class="cls-1" x="1256.16" y="461" width="1" height="11"/>
          <rect id="Прямоугольник_103-13" data-name="Прямоугольник 103" class="cls-1" x="1253.16" y="461" width="1" height="11"/>
          <rect id="Прямоугольник_104-5" data-name="Прямоугольник 104" class="cls-1" x="1250.16" y="461" width="1" height="11"/>
          <rect id="Прямоугольник_105-5" data-name="Прямоугольник 105" class="cls-1" x="1247.16" y="461" width="1" height="11"/>
          <rect id="Прямоугольник_106-5" data-name="Прямоугольник 106" class="cls-1" x="1244.16" y="461" width="1" height="11"/>
          <rect id="Прямоугольник_107-5" data-name="Прямоугольник 107" class="cls-1" x="1241.16" y="461" width="1" height="11"/>
          <rect id="Прямоугольник_108-5" data-name="Прямоугольник 108" class="cls-1" x="1238.16" y="461" width="1" height="11"/>
          <rect id="Прямоугольник_109-5" data-name="Прямоугольник 109" class="cls-1" x="1235.16" y="461" width="1" height="11"/>
          <rect id="Прямоугольник_110-5" data-name="Прямоугольник 110" class="cls-1" x="1232.16" y="461" width="1" height="11"/>
          <rect id="Прямоугольник_111-5" data-name="Прямоугольник 111" class="cls-1" x="1229.16" y="461" width="1" height="11"/>
        </g>
        <g id="Лестница_2-2" data-name="Лестница 2">
          <rect id="Прямоугольник_99-4" data-name="Прямоугольник 99" class="cls-1" x="1228.16" y="209" width="38" height="4"/>
          <rect id="Прямоугольник_113-16" data-name="Прямоугольник 113" class="cls-1" x="1265" y="194" width="1" height="15"/>
          <rect id="Прямоугольник_100-14" data-name="Прямоугольник 100" class="cls-1" x="1262" y="194" width="1" height="15"/>
          <rect id="Прямоугольник_101-14" data-name="Прямоугольник 101" class="cls-1" x="1259" y="194" width="1" height="15"/>
          <rect id="Прямоугольник_102-14" data-name="Прямоугольник 102" class="cls-1" x="1256" y="194" width="1" height="15"/>
          <rect id="Прямоугольник_103-14" data-name="Прямоугольник 103" class="cls-1" x="1253" y="194" width="1" height="15"/>
          <rect id="Прямоугольник_104-6" data-name="Прямоугольник 104" class="cls-1" x="1250" y="194" width="1" height="15"/>
          <rect id="Прямоугольник_105-6" data-name="Прямоугольник 105" class="cls-1" x="1247" y="194" width="1" height="15"/>
          <rect id="Прямоугольник_106-6" data-name="Прямоугольник 106" class="cls-1" x="1244" y="194" width="1" height="15"/>
          <rect id="Прямоугольник_107-6" data-name="Прямоугольник 107" class="cls-1" x="1241" y="194" width="1" height="15"/>
          <rect id="Прямоугольник_108-6" data-name="Прямоугольник 108" class="cls-1" x="1238" y="194" width="1" height="15"/>
          <rect id="Прямоугольник_109-6" data-name="Прямоугольник 109" class="cls-1" x="1235" y="194" width="1" height="15"/>
          <rect id="Прямоугольник_110-6" data-name="Прямоугольник 110" class="cls-1" x="1232" y="194" width="1" height="15"/>
          <rect id="Прямоугольник_111-6" data-name="Прямоугольник 111" class="cls-1" x="1229" y="194" width="1" height="15"/>
        </g>
      </g>
    </g>
    <g id="_3-3" data-name="3-3">
      <g id="Стены_и_двери" data-name="Стены и двери">
        <rect id="Прямоугольник_20" data-name="Прямоугольник 20" x="1004.5" y="311" width="5" height="169"/>
        <rect id="Прямоугольник_22" data-name="Прямоугольник 22" x="488.5" y="306.281" width="5" height="169"/>
        <rect id="Прямоугольник_788" data-name="Прямоугольник 788" x="494" y="306" width="516" height="5"/>
        <rect id="Прямоугольник_789" data-name="Прямоугольник 789" x="682" y="385" width="3" height="10"/>
        <rect id="Прямоугольник_31" data-name="Прямоугольник 31" x="897" y="420" width="3" height="55"/>
        <rect id="Прямоугольник_770-2" data-name="Прямоугольник 770" x="978" y="424" width="3" height="51"/>
        <rect id="Прямоугольник_771-2" data-name="Прямоугольник 771" x="1001" y="424" width="4" height="3"/>
        <rect id="Прямоугольник_772-2" data-name="Прямоугольник 772" x="973" y="424" width="17" height="3"/>
        <rect id="Прямоугольник_773-2" data-name="Прямоугольник 773" x="957" y="424" width="8" height="3"/>
        <rect id="Прямоугольник_774" data-name="Прямоугольник 774" x="957" y="427" width="3" height="8"/>
        <rect id="Прямоугольник_775-2" data-name="Прямоугольник 775" x="957" y="441" width="3" height="19"/>
        <rect id="Прямоугольник_776-4" data-name="Прямоугольник 776" x="957" y="469" width="3" height="6"/>
        <rect id="Прямоугольник_778" data-name="Прямоугольник 778" x="975" y="480" width="1" height="18"/>
        <rect id="Прямоугольник_779" data-name="Прямоугольник 779" x="972" y="480" width="1" height="18"/>
        <rect id="Прямоугольник_780" data-name="Прямоугольник 780" x="969" y="480" width="1" height="18"/>
        <rect id="Прямоугольник_781" data-name="Прямоугольник 781" x="966" y="480" width="1" height="18"/>
        <rect id="Прямоугольник_782" data-name="Прямоугольник 782" x="963" y="480" width="1" height="18"/>
        <rect id="Прямоугольник_783" data-name="Прямоугольник 783" x="960" y="480" width="1" height="18"/>
        <rect id="Прямоугольник_784" data-name="Прямоугольник 784" x="587" y="480" width="1" height="12"/>
        <rect id="Прямоугольник_785" data-name="Прямоугольник 785" x="590" y="480" width="1" height="12"/>
        <rect id="Прямоугольник_786" data-name="Прямоугольник 786" x="593" y="480" width="1" height="12"/>
        <rect id="Прямоугольник_787" data-name="Прямоугольник 787" x="596" y="480" width="1" height="12"/>
        <rect id="Прямоугольник_788-2" data-name="Прямоугольник 788" x="599" y="480" width="1" height="12"/>
        <rect id="Прямоугольник_789-2" data-name="Прямоугольник 789" x="602" y="480" width="1" height="12"/>
        <rect id="Прямоугольник_777-3" data-name="Прямоугольник 777" x="960" y="447" width="18" height="3"/>
        <rect id="Прямоугольник_32" data-name="Прямоугольник 32" x="828" y="425" width="69" height="3"/>
        <rect id="Прямоугольник_810" data-name="Прямоугольник 810" x="843" y="416" width="3" height="9"/>
        <rect id="Прямоугольник_811" data-name="Прямоугольник 811" x="771" y="425" width="41" height="3"/>
        <rect id="Прямоугольник_812" data-name="Прямоугольник 812" x="716" y="425" width="39" height="3"/>
        <rect id="Прямоугольник_813" data-name="Прямоугольник 813" x="787" y="428" width="3" height="47"/>
        <rect id="Прямоугольник_814" data-name="Прямоугольник 814" x="728" y="428" width="3" height="47"/>
        <rect id="Прямоугольник_33" data-name="Прямоугольник 33" x="843" y="428" width="3" height="22"/>
        <rect id="Прямоугольник_34" data-name="Прямоугольник 34" x="843" y="469" width="3" height="6"/>
        <rect id="Прямоугольник_35" data-name="Прямоугольник 35" x="682" y="415" width="3" height="60"/>
        <rect id="Прямоугольник_37" data-name="Прямоугольник 37" x="628" y="425" width="69" height="3"/>
        <rect id="Прямоугольник_38" data-name="Прямоугольник 38" x="628" y="415" width="3" height="34"/>
        <rect id="Прямоугольник_788-3" data-name="Прямоугольник 788" x="628" y="468" width="3" height="7"/>
        <rect id="Прямоугольник_824" data-name="Прямоугольник 824" x="995" y="382" width="10" height="3"/>
        <rect id="Прямоугольник_39" data-name="Прямоугольник 39" x="544" y="403" width="3" height="72"/>
        <rect id="Прямоугольник_834" data-name="Прямоугольник 834" x="544" y="385" width="3" height="5"/>
        <rect id="Прямоугольник_835" data-name="Прямоугольник 835" x="568" y="385" width="3" height="5"/>
        <rect id="Прямоугольник_836" data-name="Прямоугольник 836" x="547" y="421" width="6" height="3"/>
        <rect id="Прямоугольник_837" data-name="Прямоугольник 837" x="562" y="421" width="6" height="3"/>
        <rect id="Прямоугольник_838" data-name="Прямоугольник 838" x="596" y="385" width="3" height="5"/>
        <rect id="Прямоугольник_839" data-name="Прямоугольник 839" x="596" y="403" width="3" height="72"/>
        <rect id="Прямоугольник_40" data-name="Прямоугольник 40" x="568" y="403" width="3" height="72"/>
        <rect id="Прямоугольник_41" data-name="Прямоугольник 41" x="494" y="382" width="478" height="3"/>
        <rect id="Прямоугольник_42" data-name="Прямоугольник 42" x="628" y="384" width="3" height="11"/>
        <rect id="Прямоугольник_761" data-name="Прямоугольник 761" x="489" y="475" width="121" height="5"/>
        <rect id="Прямоугольник_762" data-name="Прямоугольник 762" x="621" y="475" width="49" height="5"/>
        <rect id="Прямоугольник_763" data-name="Прямоугольник 763" x="682" y="475" width="205" height="5"/>
        <rect id="Прямоугольник_764" data-name="Прямоугольник 764" x="897" y="475" width="92" height="5"/>
        <rect id="Прямоугольник_765" data-name="Прямоугольник 765" x="1000" y="475" width="5" height="5"/>
        <rect id="Прямоугольник_766" data-name="Прямоугольник 766" x="1005" y="480" width="5" height="23"/>
        <rect id="Прямоугольник_767" data-name="Прямоугольник 767" x="960" y="498" width="45" height="5"/>
        <rect id="Прямоугольник_768-2" data-name="Прямоугольник 768" x="643" y="480" width="5" height="17"/>
        <rect id="Прямоугольник_769-2" data-name="Прямоугольник 769" x="587" y="492" width="56" height="5"/>
      </g>
      <g id="Лестницы-3" data-name="Лестницы">
        <g id="Лестница_3" data-name="Лестница 3">
          <rect id="Прямоугольник_99-5" data-name="Прямоугольник 99" class="cls-1" x="859.5" y="449.281" width="26" height="5"/>
          <rect id="Прямоугольник_101-15" data-name="Прямоугольник 101" class="cls-1" x="859.5" y="454.281" width="1" height="21"/>
          <rect id="Прямоугольник_102-15" data-name="Прямоугольник 102" class="cls-1" x="862.5" y="454.281" width="1" height="21"/>
          <rect id="Прямоугольник_103-15" data-name="Прямоугольник 103" class="cls-1" x="865.5" y="454.281" width="1" height="21"/>
          <rect id="Прямоугольник_104-7" data-name="Прямоугольник 104" class="cls-1" x="868.5" y="454.281" width="1" height="21"/>
          <rect id="Прямоугольник_105-7" data-name="Прямоугольник 105" class="cls-1" x="871.5" y="454.281" width="1" height="21"/>
          <rect id="Прямоугольник_106-7" data-name="Прямоугольник 106" class="cls-1" x="874.5" y="454.281" width="1" height="21"/>
          <rect id="Прямоугольник_107-7" data-name="Прямоугольник 107" class="cls-1" x="877.5" y="454.281" width="1" height="21"/>
          <rect id="Прямоугольник_108-7" data-name="Прямоугольник 108" class="cls-1" x="880.5" y="454.281" width="1" height="21"/>
          <rect id="Прямоугольник_109-7" data-name="Прямоугольник 109" class="cls-1" x="883.5" y="454.281" width="1" height="21"/>
          <rect id="Прямоугольник_99-6" data-name="Прямоугольник 99" class="cls-1" x="643" y="449" width="26" height="5"/>
          <rect id="Прямоугольник_101-16" data-name="Прямоугольник 101" class="cls-1" x="643" y="454" width="1" height="21"/>
          <rect id="Прямоугольник_102-16" data-name="Прямоугольник 102" class="cls-1" x="646" y="454" width="1" height="21"/>
          <rect id="Прямоугольник_103-16" data-name="Прямоугольник 103" class="cls-1" x="649" y="454" width="1" height="21"/>
          <rect id="Прямоугольник_104-8" data-name="Прямоугольник 104" class="cls-1" x="652" y="454" width="1" height="21"/>
          <rect id="Прямоугольник_105-8" data-name="Прямоугольник 105" class="cls-1" x="655" y="454" width="1" height="21"/>
          <rect id="Прямоугольник_106-8" data-name="Прямоугольник 106" class="cls-1" x="658" y="454" width="1" height="21"/>
          <rect id="Прямоугольник_107-8" data-name="Прямоугольник 107" class="cls-1" x="661" y="454" width="1" height="21"/>
          <rect id="Прямоугольник_108-8" data-name="Прямоугольник 108" class="cls-1" x="664" y="454" width="1" height="21"/>
          <rect id="Прямоугольник_109-8" data-name="Прямоугольник 109" x="667" y="454" width="1" height="21"/>
        </g>
      </g>
    </g>
  </g>
</svg>
