<svg xmlns="http://www.w3.org/2000/svg" width="1920" height="1080" viewBox="0 0 1920 1080">
  <defs>
    <style>
      .cls-1, .cls-4 {
        fill: none;
      }

      .cls-1, .cls-2, .cls-4, .cls-5 {
        stroke: #000;
      }

      .cls-1, .cls-2 {
        stroke-width: 5px;
      }

      .cls-1, .cls-2, .cls-3, .cls-4, .cls-5, .cls-6 {
        fill-rule: evenodd;
      }

      .cls-3, .cls-5, .cls-6 {
        fill: #fff;
      }

      .cls-4, .cls-5, .cls-6 {
        stroke-width: 1px;
      }

      .cls-6 {
        stroke: #fff;
      }
    </style>
  </defs>
  <g id="Монтажная_область_1" data-name="Монтажная область 1">
    <g id="_3-0" data-name="3-0">
      <g id="стены">
        <path id="Прямоугольник_892" data-name="Прямоугольник 892" class="cls-1" d="M488.1,305h521v5h-521v-5Z"/>
        <path id="Прямоугольник_893" data-name="Прямоугольник 893" class="cls-1" d="M1004.1,306h5V479h-5V306Z"/>
        <path id="Прямоугольник_894" data-name="Прямоугольник 894" class="cls-1" d="M488.1,474h518v5h-518v-5Z"/>
        <path id="Прямоугольник_895" data-name="Прямоугольник 895" class="cls-1" d="M488.1,308h5V477h-5V308Z"/>
        <path id="Прямоугольник_897" data-name="Прямоугольник 897" class="cls-1" d="M490.1,381h517v3h-517v-3Z"/>
        <path id="Прямоугольник_898" data-name="Прямоугольник 898" class="cls-1" d="M543.1,382h3v93h-3V382Z"/>
        <path id="Прямоугольник_899" data-name="Прямоугольник 899" class="cls-1" d="M567.1,383h3v94h-3V383Z"/>
        <path id="Прямоугольник_900" data-name="Прямоугольник 900" class="cls-1" d="M627.1,382h3v95h-3V382Z"/>
        <path id="Прямоугольник_901" data-name="Прямоугольник 901" class="cls-1" d="M595.1,383h3v93h-3V383Z"/>
        <path id="Прямоугольник_902" data-name="Прямоугольник 902" class="cls-1" d="M627.1,424h379v3h-379v-3Z"/>
        <path id="Прямоугольник_903" data-name="Прямоугольник 903" class="cls-1" d="M681.1,383h3v93h-3V383Z"/>
        <path id="Прямоугольник_904" data-name="Прямоугольник 904" class="cls-1" d="M842.1,419h3v55h-3V419Z"/>
        <path id="Прямоугольник_905" data-name="Прямоугольник 905" class="cls-1" d="M896.1,419h3v56h-3V419Z"/>
        <path id="Прямоугольник_906" data-name="Прямоугольник 906" class="cls-1" d="M956.1,425h3v51h-3V425Z"/>
        <path id="Прямоугольник_908" data-name="Прямоугольник 908" class="cls-1" d="M642.1,478h5v18h-5V478Z"/>
        <path id="Прямоугольник_910" data-name="Прямоугольник 910" class="cls-1" d="M1004.1,479h5v21h-5V479Z"/>
        <path id="Прямоугольник_911" data-name="Прямоугольник 911" class="cls-1" d="M959.1,497h50v5h-50v-5Z"/>
        <path id="Прямоугольник_909" data-name="Прямоугольник 909" class="cls-1" d="M586.1,491h61v5h-61v-5Z"/>
        <path id="Прямоугольник_907" data-name="Прямоугольник 907" class="cls-1" d="M977.1,425h3v52h-3V425Z"/>
        <path id="Прямоугольник_923" data-name="Прямоугольник 923" class="cls-1" d="M786.1,426h3v51h-3V426Z"/>
        <path id="Прямоугольник_922" data-name="Прямоугольник 922" class="cls-1" d="M727.1,425h3v53h-3V425Z"/>
        <path id="Прямоугольник_924" data-name="Прямоугольник 924" class="cls-1" d="M957.1,446h21v3h-21v-3Z"/>
        <path id="Прямоугольник_931" data-name="Прямоугольник 931" class="cls-2" d="M545.1,420h25v3h-25v-3Z"/>
      </g>
      <g id="двери">
        <path id="Прямоугольник_912" data-name="Прямоугольник 912" class="cls-3" d="M988.1,472h11v8h-11v-8Z"/>
        <path id="Прямоугольник_913" data-name="Прямоугольник 913" class="cls-3" d="M953.1,459h9v9h-9v-9Z"/>
        <path id="Прямоугольник_914" data-name="Прямоугольник 914" class="cls-3" d="M964.1,422h8v7h-8v-7Z"/>
        <path id="Прямоугольник_915" data-name="Прямоугольник 915" class="cls-3" d="M989.1,422h11v7h-11v-7Z"/>
        <path id="Прямоугольник_916" data-name="Прямоугольник 916" class="cls-3" d="M899.1,422h56v11h-56V422Z"/>
        <path id="Прямоугольник_956" data-name="Прямоугольник 956" class="cls-3" d="M621.1,448h16v25h-16V448Z"/>
        <path id="Прямоугольник_957" data-name="Прямоугольник 957" class="cls-3" d="M837.1,448h17v26h-17V448Z"/>
        <path id="Прямоугольник_958" data-name="Прямоугольник 958" class="cls-3" d="M623.1,461h11v12h-11V461Z"/>
        <path id="Прямоугольник_921" data-name="Прямоугольник 921" class="cls-3" d="M609.1,471h11v9h-11v-9Z"/>
        <path id="Прямоугольник_919" data-name="Прямоугольник 919" class="cls-3" d="M623.1,394h74v20h-74V394Z"/>
        <path id="Прямоугольник_918" data-name="Прямоугольник 918" class="cls-3" d="M539.1,389h70v13h-70V389Z"/>
        <path id="Прямоугольник_925" data-name="Прямоугольник 925" class="cls-3" d="M970.1,379h24v11h-24V379Z"/>
        <path id="Прямоугольник_926" data-name="Прямоугольник 926" class="cls-3" d="M953.1,434h8v6h-8v-6Z"/>
        <path id="Прямоугольник_927" data-name="Прямоугольник 927" class="cls-3" d="M754.1,421h16v11h-16V421Z"/>
        <path id="Прямоугольник_928" data-name="Прямоугольник 928" class="cls-3" d="M811.1,422h16v9h-16v-9Z"/>
        <path id="Прямоугольник_929" data-name="Прямоугольник 929" class="cls-3" d="M696.1,420h19v10h-19V420Z"/>
        <path id="Прямоугольник_930" data-name="Прямоугольник 930" class="cls-3" d="M555.1,412h7v29h-7V412Z"/>
      </g>
      <g id="лестницы">
        <path id="Прямоугольник_932" data-name="Прямоугольник 932" class="cls-1" d="M586.1,478h1v15h-1V478Z"/>
        <path id="Прямоугольник_933" data-name="Прямоугольник 933" class="cls-1" d="M589.1,479h1v14h-1V479Z"/>
        <path id="Прямоугольник_934" data-name="Прямоугольник 934" class="cls-1" d="M592.1,479h1v14h-1V479Z"/>
        <path id="Прямоугольник_935" data-name="Прямоугольник 935" class="cls-1" d="M595.1,479h1v13h-1V479Z"/>
        <path id="Прямоугольник_936" data-name="Прямоугольник 936" class="cls-1" d="M598.1,479h1v14h-1V479Z"/>
        <path id="Прямоугольник_937" data-name="Прямоугольник 937" class="cls-1" d="M601.1,479h1v14h-1V479Z"/>
        <path id="Прямоугольник_938" data-name="Прямоугольник 938" class="cls-1" d="M959.1,479h1v22h-1V479Z"/>
        <path id="Прямоугольник_939" data-name="Прямоугольник 939" class="cls-1" d="M962.1,478h1v22h-1V478Z"/>
        <path id="Прямоугольник_940" data-name="Прямоугольник 940" class="cls-1" d="M965.1,478h1v22h-1V478Z"/>
        <path id="Прямоугольник_941" data-name="Прямоугольник 941" class="cls-1" d="M968.1,478h1v22h-1V478Z"/>
        <path id="Прямоугольник_942" data-name="Прямоугольник 942" class="cls-1" d="M971.1,478h1v22h-1V478Z"/>
        <path id="Прямоугольник_943" data-name="Прямоугольник 943" class="cls-1" d="M974.1,478h1v21h-1V478Z"/>
        <path id="Прямоугольник_944" data-name="Прямоугольник 944" class="cls-4" d="M859.1,448h26v5h-26v-5Z"/>
        <path id="Прямоугольник_945" data-name="Прямоугольник 945" class="cls-4" d="M642.1,448h26v5h-26v-5Z"/>
        <path id="Прямоугольник_946" data-name="Прямоугольник 946" class="cls-4" d="M642.1,452h4v24h-4V452Z"/>
        <path id="Прямоугольник_947" data-name="Прямоугольник 947" class="cls-4" d="M648.1,452h4v24h-4V452Z"/>
        <path id="Прямоугольник_948" data-name="Прямоугольник 948" class="cls-4" d="M654.1,452h4v25h-4V452Z"/>
        <path id="Прямоугольник_949" data-name="Прямоугольник 949" class="cls-4" d="M660.1,452h4v25h-4V452Z"/>
        <path id="Прямоугольник_950" data-name="Прямоугольник 950" class="cls-4" d="M666.1,453h1v24h-1V453Z"/>
        <path id="Прямоугольник_951" data-name="Прямоугольник 951" class="cls-4" d="M880.1,452h4v25h-4V452Z"/>
        <path id="Прямоугольник_952" data-name="Прямоугольник 952" class="cls-4" d="M874.1,452h4v24h-4V452Z"/>
        <path id="Прямоугольник_953" data-name="Прямоугольник 953" class="cls-4" d="M868.1,452h4v25h-4V452Z"/>
        <path id="Прямоугольник_954" data-name="Прямоугольник 954" class="cls-4" d="M862.1,452h4v24h-4V452Z"/>
        <path id="Прямоугольник_955" data-name="Прямоугольник 955" class="cls-4" d="M859.1,452h1v24h-1V452Z"/>
        <path id="Прямоугольник_956-2" data-name="Прямоугольник 956" class="cls-3" d="M886.1,472h9v10h-9V472Z"/>
        <path id="Прямоугольник_957-2" data-name="Прямоугольник 957" class="cls-3" d="M669.1,472h11v10h-11V472Z"/>
      </g>
    </g>
    <g id="_2-0" data-name="2-0">
      <g id="стены-2" data-name="стены">
        <path id="Прямоугольник_800" data-name="Прямоугольник 800" class="cls-1" d="M1211.1,78h201v5h-201V78Z"/>
        <path id="Прямоугольник_801" data-name="Прямоугольник 801" class="cls-1" d="M1211.1,581h201v5h-201v-5Z"/>
        <path id="Прямоугольник_802" data-name="Прямоугольник 802" class="cls-1" d="M1407.1,78h5V585h-5V78Z"/>
        <path id="Прямоугольник_803" data-name="Прямоугольник 803" class="cls-1" d="M1210.1,78h5V586h-5V78Z"/>
        <path id="Прямоугольник_804" data-name="Прямоугольник 804" class="cls-1" d="M1312.1,82h3V585h-3V82Z"/>
        <path id="Прямоугольник_805" data-name="Прямоугольник 805" class="cls-1" d="M1279.1,81h3V582h-3V81Z"/>
        <path id="Прямоугольник_806" data-name="Прямоугольник 806" class="cls-1" d="M1279.1,541h35v3h-35v-3Z"/>
        <path id="Прямоугольник_807" data-name="Прямоугольник 807" class="cls-1" d="M1213.1,510h69v3h-69v-3Z"/>
        <path id="Прямоугольник_808" data-name="Прямоугольник 808" class="cls-1" d="M1213.1,480h68v3h-68v-3Z"/>
        <path id="Прямоугольник_809" data-name="Прямоугольник 809" class="cls-1" d="M1213.1,454h69v3h-69v-3Z"/>
        <path id="Прямоугольник_810" data-name="Прямоугольник 810" class="cls-1" d="M1212.1,413h69v3h-69v-3Z"/>
        <path id="Прямоугольник_811" data-name="Прямоугольник 811" class="cls-1" d="M1213.1,288h67v3h-67v-3Z"/>
        <path id="Прямоугольник_812" data-name="Прямоугольник 812" class="cls-1" d="M1211.1,221h71v3h-71v-3Z"/>
        <path id="Прямоугольник_813" data-name="Прямоугольник 813" class="cls-1" d="M1213.1,188h68v3h-68v-3Z"/>
        <path id="Прямоугольник_814" data-name="Прямоугольник 814" class="cls-1" d="M1214.1,149h66v3h-66v-3Z"/>
        <path id="Прямоугольник_815" data-name="Прямоугольник 815" class="cls-1" d="M1279.1,117h34v3h-34v-3Z"/>
        <path id="Прямоугольник_817" data-name="Прямоугольник 817" class="cls-1" d="M1313.1,186h99v3h-99v-3Z"/>
        <path id="Прямоугольник_818" data-name="Прямоугольник 818" class="cls-1" d="M1314.1,268h96v3h-96v-3Z"/>
        <path id="Прямоугольник_819" data-name="Прямоугольник 819" class="cls-1" d="M1313.1,308h96v3h-96v-3Z"/>
        <path id="Прямоугольник_820" data-name="Прямоугольник 820" class="cls-1" d="M1313.1,421h97v3h-97v-3Z"/>
        <path id="Прямоугольник_821" data-name="Прямоугольник 821" class="cls-1" d="M1313.1,472h95v3h-95v-3Z"/>
        <path id="Прямоугольник_822" data-name="Прямоугольник 822" class="cls-1" d="M1314.1,446h95v3h-95v-3Z"/>
        <path id="Прямоугольник_823" data-name="Прямоугольник 823" class="cls-1" d="M1257.1,482h3v30h-3V482Z"/>
        <path id="Прямоугольник_817-2" data-name="Прямоугольник 817" class="cls-1" d="M1313.1,217h97v3h-97v-3Z"/>
      </g>
      <g id="двери-2" data-name="двери">
        <path id="Прямоугольник_826" data-name="Прямоугольник 826" class="cls-3" d="M1292.1,116h11v5h-11v-5Z"/>
        <path id="Прямоугольник_827" data-name="Прямоугольник 827" class="cls-3" d="M1308.1,156h11v14h-11V156Z"/>
        <path id="Прямоугольник_828" data-name="Прямоугольник 828" class="cls-3" d="M1276.1,130h10v12h-10V130Z"/>
        <path id="Прямоугольник_829" data-name="Прямоугольник 829" class="cls-3" d="M1253.1,147h12v6h-12v-6Z"/>
        <path id="Прямоугольник_830" data-name="Прямоугольник 830" class="cls-3" d="M1309.1,200h9v11h-9V200Z"/>
        <path id="Прямоугольник_831" data-name="Прямоугольник 831" class="cls-3" d="M1277.1,191h8v28h-8V191Z"/>
        <path id="Прямоугольник_832" data-name="Прямоугольник 832" class="cls-3" d="M1276.1,218h9v3h-9v-3Z"/>
        <path id="Прямоугольник_833" data-name="Прямоугольник 833" class="cls-3" d="M1309.1,243h11v12h-11V243Z"/>
        <path id="Прямоугольник_834" data-name="Прямоугольник 834" class="cls-3" d="M1308.1,285h12v13h-12V285Z"/>
        <path id="Прямоугольник_835" data-name="Прямоугольник 835" class="cls-3" d="M1307.1,338h12v17h-12V338Z"/>
        <path id="Прямоугольник_836" data-name="Прямоугольник 836" class="cls-3" d="M1277.1,318h10v15h-10V318Z"/>
        <path id="Прямоугольник_837" data-name="Прямоугольник 837" class="cls-3" d="M1275.1,249h10v13h-10V249Z"/>
        <path id="Прямоугольник_838" data-name="Прямоугольник 838" class="cls-3" d="M1225.1,287h13v5h-13v-5Z"/>
        <path id="Прямоугольник_839" data-name="Прямоугольник 839" class="cls-3" d="M1207.1,206h11v15h-11V206Z"/>
        <path id="Прямоугольник_840" data-name="Прямоугольник 840" class="cls-3" d="M1277.1,419h8v16h-8V419Z"/>
        <path id="Прямоугольник_841" data-name="Прямоугольник 841" class="cls-3" d="M1278.1,456h9v24h-9V456Z"/>
        <path id="Прямоугольник_842" data-name="Прямоугольник 842" class="cls-3" d="M1309.1,430h10v11h-10V430Z"/>
        <path id="Прямоугольник_843" data-name="Прямоугольник 843" class="cls-3" d="M1379.1,468h15v9h-15v-9Z"/>
        <path id="Прямоугольник_844" data-name="Прямоугольник 844" class="cls-3" d="M1254.1,498h10v9h-10v-9Z"/>
        <path id="Прямоугольник_845" data-name="Прямоугольник 845" class="cls-3" d="M1207.1,468h12v12h-12V468Z"/>
        <path id="Прямоугольник_846" data-name="Прямоугольник 846" class="cls-3" d="M1291.1,539h12v8h-12v-8Z"/>
        <path id="Прямоугольник_847" data-name="Прямоугольник 847" class="cls-3" d="M1309.1,518h11v13h-11V518Z"/>
        <path id="Прямоугольник_848" data-name="Прямоугольник 848" class="cls-3" d="M1277.1,528h8v9h-8v-9Z"/>
        <path id="Прямоугольник_849" data-name="Прямоугольник 849" class="cls-3" d="M1275.1,498h12v8h-12v-8Z"/>
        <path id="Прямоугольник_850" data-name="Прямоугольник 850" class="cls-2" d="M1273.1,454h8v3h-8v-3Z"/>
        <path id="Прямоугольник_851" data-name="Прямоугольник 851" class="cls-2" d="M1247.1,222h3v67h-3V222Z"/>
        <path id="Прямоугольник_852" data-name="Прямоугольник 852" class="cls-2" d="M1280.1,454h2v3h-2v-3Z"/>
        <path id="Прямоугольник_853" data-name="Прямоугольник 853" class="cls-4" d="M1228.1,467h38v3h-38v-3Z"/>
        <path id="Прямоугольник_854" data-name="Прямоугольник 854" class="cls-4" d="M1228.1,204h38v4h-38v-4Z"/>
        <path id="Прямоугольник_857" data-name="Прямоугольник 857" class="cls-3" d="M1245.1,271h8v10h-8V271Z"/>
      </g>
      <g id="лестницы-2" data-name="лестницы">
        <path id="Прямоугольник_858" data-name="Прямоугольник 858" class="cls-1" d="M1229.1,190h1v15h-1V190Z"/>
        <path id="Прямоугольник_859" data-name="Прямоугольник 859" class="cls-1" d="M1232.1,190h1v15h-1V190Z"/>
        <path id="Прямоугольник_860" data-name="Прямоугольник 860" class="cls-1" d="M1235.1,190h1v15h-1V190Z"/>
        <path id="Прямоугольник_861" data-name="Прямоугольник 861" class="cls-1" d="M1238.1,191h1v14h-1V191Z"/>
        <path id="Прямоугольник_862" data-name="Прямоугольник 862" class="cls-1" d="M1241.1,190h1v15h-1V190Z"/>
        <path id="Прямоугольник_863" data-name="Прямоугольник 863" class="cls-1" d="M1244.1,191h1v13h-1V191Z"/>
        <path id="Прямоугольник_864" data-name="Прямоугольник 864" class="cls-1" d="M1247.1,191h1v14h-1V191Z"/>
        <path id="Прямоугольник_865" data-name="Прямоугольник 865" class="cls-1" d="M1250.1,190h1v15h-1V190Z"/>
        <path id="Прямоугольник_866" data-name="Прямоугольник 866" class="cls-1" d="M1253.1,191h1v13h-1V191Z"/>
        <path id="Прямоугольник_867" data-name="Прямоугольник 867" class="cls-1" d="M1256.1,191h1v13h-1V191Z"/>
        <path id="Прямоугольник_868" data-name="Прямоугольник 868" class="cls-1" d="M1259.1,191h1v13h-1V191Z"/>
        <path id="Прямоугольник_869" data-name="Прямоугольник 869" class="cls-1" d="M1262.1,191h1v13h-1V191Z"/>
        <path id="Прямоугольник_870" data-name="Прямоугольник 870" class="cls-1" d="M1265.1,191h1v13h-1V191Z"/>
        <path id="Прямоугольник_871" data-name="Прямоугольник 871" class="cls-1" d="M1265.1,456h1v14h-1V456Z"/>
        <path id="Прямоугольник_872" data-name="Прямоугольник 872" class="cls-1" d="M1262.1,457h1v11h-1V457Z"/>
        <path id="Прямоугольник_873" data-name="Прямоугольник 873" class="cls-1" d="M1259.1,457h1v10h-1V457Z"/>
        <path id="Прямоугольник_874" data-name="Прямоугольник 874" class="cls-1" d="M1256.1,456h1v11h-1V456Z"/>
        <path id="Прямоугольник_875" data-name="Прямоугольник 875" class="cls-1" d="M1253.1,457h1v10h-1V457Z"/>
        <path id="Прямоугольник_876" data-name="Прямоугольник 876" class="cls-1" d="M1250.1,457h1v11h-1V457Z"/>
        <path id="Прямоугольник_877" data-name="Прямоугольник 877" class="cls-1" d="M1247.1,457h1v10h-1V457Z"/>
        <path id="Прямоугольник_878" data-name="Прямоугольник 878" class="cls-1" d="M1244.1,457h1v10h-1V457Z"/>
        <path id="Прямоугольник_879" data-name="Прямоугольник 879" class="cls-1" d="M1241.1,457h1v10h-1V457Z"/>
        <path id="Прямоугольник_880" data-name="Прямоугольник 880" class="cls-1" d="M1238.1,457h1v10h-1V457Z"/>
        <path id="Прямоугольник_881" data-name="Прямоугольник 881" class="cls-1" d="M1235.1,456h1v11h-1V456Z"/>
        <path id="Прямоугольник_882" data-name="Прямоугольник 882" class="cls-1" d="M1232.1,457h1v11h-1V457Z"/>
        <path id="Прямоугольник_883" data-name="Прямоугольник 883" class="cls-1" d="M1229.1,457h1v10h-1V457Z"/>
      </g>
    </g>
    <g id="_1-0" data-name="1-0">
      <g id="стены-3" data-name="стены">
        <path id="Прямоугольник_682" data-name="Прямоугольник 682" class="cls-2" d="M951.1,687h283v5h-283v-5Z"/>
        <path id="Прямоугольник_683" data-name="Прямоугольник 683" class="cls-2" d="M1230.1,687h5v56h-5V687Z"/>
        <path id="Прямоугольник_684" data-name="Прямоугольник 684" class="cls-2" d="M1230.1,738h189v5h-189v-5Z"/>
        <path id="Прямоугольник_685" data-name="Прямоугольник 685" class="cls-2" d="M1415.1,738h5v315h-5V738Z"/>
        <path id="Прямоугольник_686" data-name="Прямоугольник 686" class="cls-2" d="M756.1,1049h664v5h-664v-5Z"/>
        <path id="Прямоугольник_687" data-name="Прямоугольник 687" class="cls-2" d="M756.1,739h5v314h-5V739Z"/>
        <path id="Прямоугольник_688" data-name="Прямоугольник 688" class="cls-2" d="M756.1,738h200v5h-200v-5Z"/>
        <path id="Прямоугольник_689" data-name="Прямоугольник 689" class="cls-2" d="M951.1,688h5v51h-5V688Z"/>
        <path id="Прямоугольник_690" data-name="Прямоугольник 690" class="cls-2" d="M861.1,739h3V865h-3V739Z"/>
        <path id="Прямоугольник_691" data-name="Прямоугольник 691" class="cls-2" d="M911.1,741h3V864h-3V741Z"/>
        <path id="Прямоугольник_692" data-name="Прямоугольник 692" class="cls-2" d="M760.1,862h154v3h-154v-3Z"/>
        <path id="Прямоугольник_693" data-name="Прямоугольник 693" class="cls-2" d="M808.1,862h3v190h-3V862Z"/>
        <path id="Прямоугольник_695" data-name="Прямоугольник 695" class="cls-2" d="M911.1,863h3v188h-3V863Z"/>
        <path id="Прямоугольник_696" data-name="Прямоугольник 696" class="cls-2" d="M861.1,863h3v58h-3V863Z"/>
        <path id="Прямоугольник_697" data-name="Прямоугольник 697" class="cls-2" d="M953.1,738h3V863h-3V738Z"/>
        <path id="Прямоугольник_698" data-name="Прямоугольник 698" class="cls-2" d="M953.1,862h280v3h-280v-3Z"/>
        <path id="Прямоугольник_699" data-name="Прямоугольник 699" class="cls-2" d="M1230.1,742h3V863h-3V742Z"/>
        <path id="Прямоугольник_700" data-name="Прямоугольник 700" class="cls-2" d="M1271.1,742h3V865h-3V742Z"/>
        <path id="Прямоугольник_701" data-name="Прямоугольник 701" class="cls-2" d="M1271.1,862h148v3h-148v-3Z"/>
        <path id="Прямоугольник_702" data-name="Прямоугольник 702" class="cls-2" d="M1316.1,742h3V864h-3V742Z"/>
        <path id="Прямоугольник_703" data-name="Прямоугольник 703" class="cls-2" d="M953.1,863h3v190h-3V863Z"/>
        <path id="Прямоугольник_704" data-name="Прямоугольник 704" class="cls-2" d="M1230.1,863h3v191h-3V863Z"/>
        <path id="Прямоугольник_705" data-name="Прямоугольник 705" class="cls-2" d="M1325.1,863h3v190h-3V863Z"/>
        <path id="Прямоугольник_706" data-name="Прямоугольник 706" class="cls-2" d="M1017.1,920h3v132h-3V920Z"/>
        <path id="Прямоугольник_707" data-name="Прямоугольник 707" class="cls-2" d="M1017.1,1003h216v3h-216v-3Z"/>
        <path id="Прямоугольник_708" data-name="Прямоугольник 708" class="cls-2" d="M1068.1,863h3v142h-3V863Z"/>
        <path id="Прямоугольник_709" data-name="Прямоугольник 709" class="cls-2" d="M1128.1,919h3v86h-3V919Z"/>
        <path id="Прямоугольник_710" data-name="Прямоугольник 710" class="cls-2" d="M1156.1,920h3v85h-3V920Z"/>
        <path id="Прямоугольник_711" data-name="Прямоугольник 711" class="cls-2" d="M1128.1,863h3v59h-3V863Z"/>
        <path id="Прямоугольник_712" data-name="Прямоугольник 712" class="cls-2" d="M912.1,983h44v3h-44v-3Z"/>
        <path id="Прямоугольник_695-2" data-name="Прямоугольник 695" class="cls-2" d="M808.1,919h610v3h-610v-3Z"/>
      </g>
      <g id="окна">
        <path id="Прямоугольник_763" data-name="Прямоугольник 763" class="cls-5" d="M1019.1,688h45v3h-45v-3Z"/>
        <path id="Прямоугольник_764" data-name="Прямоугольник 764" class="cls-5" d="M1084.1,688h39v3h-39v-3Z"/>
        <path id="Прямоугольник_765" data-name="Прямоугольник 765" class="cls-5" d="M1146.1,688h40v3h-40v-3Z"/>
        <path id="Прямоугольник_766" data-name="Прямоугольник 766" class="cls-6" d="M1085.1,687h37v1h-37v-1Z"/>
        <path id="Прямоугольник_767" data-name="Прямоугольник 767" class="cls-6" d="M1085.1,691h37v1h-37v-1Z"/>
        <path id="Прямоугольник_768" data-name="Прямоугольник 768" class="cls-6" d="M1147.1,687h38v1h-38v-1Z"/>
        <path id="Прямоугольник_769" data-name="Прямоугольник 769" class="cls-6" d="M1147.1,691h38v1h-38v-1Z"/>
        <path id="Прямоугольник_770" data-name="Прямоугольник 770" class="cls-6" d="M1020.1,687h43v1h-43v-1Z"/>
        <path id="Прямоугольник_771" data-name="Прямоугольник 771" class="cls-6" d="M1020.1,691h43v1h-43v-1Z"/>
      </g>
      <g id="двери-3" data-name="двери">
        <path id="Прямоугольник_772" data-name="Прямоугольник 772" class="cls-3" d="M827.1,860h19v9h-19v-9Z"/>
        <path id="Прямоугольник_773" data-name="Прямоугольник 773" class="cls-3" d="M805.1,883h12v16h-12V883Z"/>
        <path id="Прямоугольник_774" data-name="Прямоугольник 774" class="cls-3" d="M831.1,915h17v10h-17V915Z"/>
        <path id="Прямоугольник_775" data-name="Прямоугольник 775" class="cls-3" d="M881.1,861h15v65h-15V861Z"/>
        <path id="Прямоугольник_776" data-name="Прямоугольник 776" class="cls-3" d="M926.1,916h15v11h-15V916Z"/>
        <path id="Прямоугольник_777" data-name="Прямоугольник 777" class="cls-3" d="M949.1,880h17v30h-17V880Z"/>
        <path id="Прямоугольник_778" data-name="Прямоугольник 778" class="cls-3" d="M926.1,980h16v9h-16v-9Z"/>
        <path id="Прямоугольник_779" data-name="Прямоугольник 779" class="cls-3" d="M950.1,934h14v35h-14V934Z"/>
        <path id="Прямоугольник_780" data-name="Прямоугольник 780" class="cls-3" d="M970.1,916h24v8h-24v-8Z"/>
        <path id="Прямоугольник_781" data-name="Прямоугольник 781" class="cls-3" d="M1061.1,931h77v21h-77V931Z"/>
        <path id="Прямоугольник_782" data-name="Прямоугольник 782" class="cls-3" d="M1151.1,970h17v11h-17V970Z"/>
        <path id="Прямоугольник_783" data-name="Прямоугольник 783" class="cls-3" d="M1099.1,998h19v16h-19V998Z"/>
        <path id="Прямоугольник_784" data-name="Прямоугольник 784" class="cls-3" d="M1090.1,853h22v92h-22V853Z"/>
        <path id="Прямоугольник_785" data-name="Прямоугольник 785" class="cls-3" d="M1044.1,879h1v25h-1V879Z"/>
        <path id="Прямоугольник_786" data-name="Прямоугольник 786" class="cls-3" d="M1056.1,869h90v45h-90V869Z"/>
        <path id="Прямоугольник_787" data-name="Прямоугольник 787" class="cls-3" d="M1222.1,869h24v45h-24V869Z"/>
        <path id="Прямоугольник_788" data-name="Прямоугольник 788" class="cls-3" d="M1321.1,936h17v42h-17V936Z"/>
        <path id="Прямоугольник_789" data-name="Прямоугольник 789" class="cls-3" d="M1322.1,871h13v42h-13V871Z"/>
        <path id="Прямоугольник_790" data-name="Прямоугольник 790" class="cls-3" d="M1288.1,858h15v11h-15V858Z"/>
        <path id="Прямоугольник_791" data-name="Прямоугольник 791" class="cls-3" d="M1333.1,915h38v11h-38V915Z"/>
        <path id="Прямоугольник_792" data-name="Прямоугольник 792" class="cls-3" d="M1235.1,732h16v17h-16V732Z"/>
        <path id="Прямоугольник_793" data-name="Прямоугольник 793" class="cls-3" d="M936.1,730h15v23h-15V730Z"/>
        <path id="Прямоугольник_794" data-name="Прямоугольник 794" class="cls-3" d="M856.1,881h68v17h-68V881Z"/>
      </g>
      <g id="лестницы-3" data-name="лестницы">
        <path id="Прямоугольник_719" data-name="Прямоугольник 719" class="cls-2" d="M932.1,771h1v55h-1V771Z"/>
        <path id="Прямоугольник_720" data-name="Прямоугольник 720" class="cls-2" d="M932.1,771h5v1h-5v-1Z"/>
        <path id="Прямоугольник_721" data-name="Прямоугольник 721" class="cls-2" d="M932.1,825h5v1h-5v-1Z"/>
        <path id="Прямоугольник_722" data-name="Прямоугольник 722" class="cls-2" d="M936.1,772h1v53h-1V772Z"/>
        <path id="Прямоугольник_723" data-name="Прямоугольник 723" class="cls-2" d="M936.1,825h18v1h-18v-1Z"/>
        <path id="Прямоугольник_724" data-name="Прямоугольник 724" class="cls-2" d="M936.1,822h18v1h-18v-1Z"/>
        <path id="Прямоугольник_725" data-name="Прямоугольник 725" class="cls-2" d="M936.1,819h18v1h-18v-1Z"/>
        <path id="Прямоугольник_726" data-name="Прямоугольник 726" class="cls-2" d="M936.1,816h18v1h-18v-1Z"/>
        <path id="Прямоугольник_727" data-name="Прямоугольник 727" class="cls-2" d="M936.1,813h18v1h-18v-1Z"/>
        <path id="Прямоугольник_728" data-name="Прямоугольник 728" class="cls-2" d="M936.1,810h18v1h-18v-1Z"/>
        <path id="Прямоугольник_729" data-name="Прямоугольник 729" class="cls-2" d="M936.1,807h18v1h-18v-1Z"/>
        <path id="Прямоугольник_730" data-name="Прямоугольник 730" class="cls-2" d="M936.1,804h18v1h-18v-1Z"/>
        <path id="Прямоугольник_731" data-name="Прямоугольник 731" class="cls-2" d="M936.1,801h18v1h-18v-1Z"/>
        <path id="Прямоугольник_732" data-name="Прямоугольник 732" class="cls-2" d="M936.1,798h20v1h-20v-1Z"/>
        <path id="Прямоугольник_733" data-name="Прямоугольник 733" class="cls-2" d="M936.1,795h18v1h-18v-1Z"/>
        <path id="Прямоугольник_734" data-name="Прямоугольник 734" class="cls-2" d="M936.1,792h18v1h-18v-1Z"/>
        <path id="Прямоугольник_735" data-name="Прямоугольник 735" class="cls-2" d="M936.1,789h18v1h-18v-1Z"/>
        <path id="Прямоугольник_736" data-name="Прямоугольник 736" class="cls-2" d="M936.1,786h18v1h-18v-1Z"/>
        <path id="Прямоугольник_737" data-name="Прямоугольник 737" class="cls-2" d="M936.1,783h19v1h-19v-1Z"/>
        <path id="Прямоугольник_738" data-name="Прямоугольник 738" class="cls-2" d="M936.1,780h19v1h-19v-1Z"/>
        <path id="Прямоугольник_739" data-name="Прямоугольник 739" class="cls-2" d="M936.1,777h18v1h-18v-1Z"/>
        <path id="Прямоугольник_740" data-name="Прямоугольник 740" class="cls-2" d="M936.1,774h18v1h-18v-1Z"/>
        <path id="Прямоугольник_741" data-name="Прямоугольник 741" class="cls-2" d="M932.1,771h1v54h-1V771Z"/>
        <path id="Прямоугольник_742" data-name="Прямоугольник 742" class="cls-2" d="M1250.1,771h1v55h-1V771Z"/>
        <path id="Прямоугольник_743" data-name="Прямоугольник 743" class="cls-2" d="M1250.1,825h23v1h-23v-1Z"/>
        <path id="Прямоугольник_744" data-name="Прямоугольник 744" class="cls-2" d="M1254.1,822h19v1h-19v-1Z"/>
        <path id="Прямоугольник_745" data-name="Прямоугольник 745" class="cls-2" d="M1254.1,819h18v1h-18v-1Z"/>
        <path id="Прямоугольник_746" data-name="Прямоугольник 746" class="cls-2" d="M1254.1,771h1v54h-1V771Z"/>
        <path id="Прямоугольник_747" data-name="Прямоугольник 747" class="cls-2" d="M1250.1,771h5v1h-5v-1Z"/>
        <path id="Прямоугольник_748" data-name="Прямоугольник 748" class="cls-2" d="M1254.1,816h18v1h-18v-1Z"/>
        <path id="Прямоугольник_749" data-name="Прямоугольник 749" class="cls-2" d="M1254.1,813h19v1h-19v-1Z"/>
        <path id="Прямоугольник_750" data-name="Прямоугольник 750" class="cls-2" d="M1254.1,810h18v1h-18v-1Z"/>
        <path id="Прямоугольник_751" data-name="Прямоугольник 751" class="cls-2" d="M1254.1,807h19v1h-19v-1Z"/>
        <path id="Прямоугольник_752" data-name="Прямоугольник 752" class="cls-2" d="M1254.1,804h18v1h-18v-1Z"/>
        <path id="Прямоугольник_753" data-name="Прямоугольник 753" class="cls-2" d="M1255.1,801h16v1h-16v-1Z"/>
        <path id="Прямоугольник_754" data-name="Прямоугольник 754" class="cls-2" d="M1254.1,798h18v1h-18v-1Z"/>
        <path id="Прямоугольник_755" data-name="Прямоугольник 755" class="cls-2" d="M1254.1,795h18v1h-18v-1Z"/>
        <path id="Прямоугольник_756" data-name="Прямоугольник 756" class="cls-2" d="M1254.1,792h19v1h-19v-1Z"/>
        <path id="Прямоугольник_757" data-name="Прямоугольник 757" class="cls-2" d="M1254.1,789h18v1h-18v-1Z"/>
        <path id="Прямоугольник_758" data-name="Прямоугольник 758" class="cls-2" d="M1254.1,786h18v1h-18v-1Z"/>
        <path id="Прямоугольник_759" data-name="Прямоугольник 759" class="cls-2" d="M1255.1,783h16v1h-16v-1Z"/>
        <path id="Прямоугольник_760" data-name="Прямоугольник 760" class="cls-2" d="M1254.1,780h18v1h-18v-1Z"/>
        <path id="Прямоугольник_761" data-name="Прямоугольник 761" class="cls-2" d="M1254.1,777h19v1h-19v-1Z"/>
        <path id="Прямоугольник_762" data-name="Прямоугольник 762" class="cls-2" d="M1254.1,774h19v1h-19v-1Z"/>
      </g>
    </g>
  </g>
</svg>
