<svg id="Слой_1" data-name="Слой 1" xmlns="http://www.w3.org/2000/svg" viewBox="0 0 191.24 474.47"><defs><style>.cls-1{fill:#5498cf;}</style></defs><path class="cls-1" d="M307.42,109.7H206.07a44.69,44.69,0,0,0-44.6,44.36l-.69,138.44a18.84,18.84,0,0,0,18.74,18.93h.1a18.83,18.83,0,0,0,18.84-18.74l.7-138.43v0a3.74,3.74,0,0,1,7.47,0V471a22.62,22.62,0,0,0,45.23,0V290.28h9.76V471a22.61,22.61,0,0,0,45.22,0c0-298.89-.4-128-.41-316.48a4,4,0,0,1,7.89-.31h0l-.13,138.35A18.84,18.84,0,0,0,333,311.43h0a18.84,18.84,0,0,0,18.84-18.82L352,154.18v-.12A44.68,44.68,0,0,0,307.42,109.7Z" transform="translate(-160.78 -19.15)"/><circle class="cls-1" cx="95.97" cy="39.05" r="39.05"/></svg>