<svg id="Слой_1" data-name="Слой 1" xmlns="http://www.w3.org/2000/svg" viewBox="0 0 391.68 443.76"><defs><style>.cls-1{fill:#5498cf;}</style></defs><polygon class="cls-1" points="30.56 443.76 102.22 443.76 391.68 202.78 391.68 164.84 319.32 164.84 319.32 202.43 262.76 202.43 262.76 247.4 200.93 247.4 200.93 296.22 144.38 296.22 144.38 345.75 88.52 345.75 88.52 390.72 30.56 390.72 30.56 443.76"/><path class="cls-1" d="M158.11,364.81V279.13l-44.62,39.34s-5.62,7-22.83,7-27.75-.7-27.75-.7-7.73-.71-7.73-11.95v-.34a13,13,0,0,1,13-12.65h7.12a40.75,40.75,0,0,1,6.42.66c2.64.42,10.38-1.36,32.09-19.28C144.05,256.3,396.8,44,396.8,44s6.5-7.56,22.31-9,26.52,0,26.52,12.12-7.73,13.17-15.81,13.35-17.74,3.86-25.64,10.89-48.3,43-48.3,43V223.63h-23V133L180.76,258.93l0,105.89H158.11Z" transform="translate(-55.18 -34.54)"/></svg>