<svg id="Слой_1" data-name="Слой 1" xmlns="http://www.w3.org/2000/svg" viewBox="0 0 233.77 471"><defs><style>.cls-1{fill:#5498cf;}</style></defs><path class="cls-1" d="M372.2,263.24c-.35-1-34.61-98.72-40-114.41C323.52,123.58,309,110.78,289,110.78H223.79c-20,0-34.57,12.8-43.25,38.05-5.39,15.69-39.65,113.42-40,114.41a18.71,18.71,0,0,0,35.31,12.38c1.1-3.16,21.72-60.43,33.22-93.39-1.21,9.84,2.26-10.58-26.74,139.15a10.42,10.42,0,0,0,10.2,12.38h14.28V469.44a22.45,22.45,0,1,0,44.89,0V333.76h9.69V469.44a22.45,22.45,0,1,0,44.89,0V333.76h14.27a10.4,10.4,0,0,0,10.21-12.38C302,173,305.19,190.24,304.21,182.23c11.59,33.21,31.6,90.28,32.69,93.39a18.7,18.7,0,1,0,35.3-12.38Z" transform="translate(-139.48 -20.89)"/><circle class="cls-1" cx="117.06" cy="38.77" r="38.77"/></svg>